<svg xmlns="http://www.w3.org/2000/svg" viewBox="0 0 800 420" font-family="Segoe UI, sans-serif">
<rect width="800" height="420" fill="#0d1117" rx="8"/>
<text x="64" y="30" fill="#e6edf3" font-size="17" font-weight="700">★ Star History — timoncool/videosos</text>
<text x="776" y="30" fill="#e6edf3" font-size="14" text-anchor="end">1261 stars · updated 2026-09-28</text>
<line x1="64" y1="364.0" x2="776" y2="364.0" stroke="#30363d" stroke-width="1"/><text x="54" y="368.0" fill="#e6edf3" font-size="13" text-anchor="end">0</text><line x1="64" y1="285.1" x2="776" y2="285.1" stroke="#30363d" stroke-width="1"/><text x="54" y="289.1" fill="#e6edf3" font-size="13" text-anchor="end">315</text><line x1="64" y1="206.1" x2="776" y2="206.1" stroke="#30363d" stroke-width="1"/><text x="54" y="210.1" fill="#e6edf3" font-size="13" text-anchor="end">630</text><line x1="64" y1="126.9" x2="776" y2="126.9" stroke="#30363d" stroke-width="1"/><text x="54" y="130.9" fill="#e6edf3" font-size="13" text-anchor="end">946</text><line x1="64" y1="48.0" x2="776" y2="48.0" stroke="#30363d" stroke-width="1"/><text x="54" y="52.0" fill="#e6edf3" font-size="13" text-anchor="end">1261</text>
<path d="M64.0,364.0 L64.0,363.7 L66.7,363.5 L70.4,363.2 L90.2,363.0 L90.2,362.7 L90.2,362.5 L90.3,362.2 L90.4,362.0 L92.2,361.7 L92.3,361.5 L92.6,361.2 L92.9,361.0 L93.1,360.7 L94.0,360.5 L96.8,360.2 L97.1,360.0 L97.3,359.7 L99.0,359.5 L109.0,359.2 L109.0,359.0 L109.0,358.7 L109.0,358.5 L109.0,358.2 L109.0,358.0 L109.0,357.7 L109.1,357.5 L109.1,357.2 L109.1,357.0 L109.1,356.7 L109.1,356.5 L109.1,356.2 L109.1,356.0 L109.2,355.7 L109.2,355.5 L109.2,355.2 L109.2,355.0 L109.2,354.7 L109.2,354.5 L109.2,354.2 L109.2,354.0 L109.2,353.7 L109.3,353.5 L109.3,353.2 L109.3,353.0 L109.3,352.7 L109.3,352.5 L109.3,352.2 L109.3,352.0 L109.3,351.7 L109.3,351.5 L109.3,351.2 L109.3,351.0 L109.3,350.7 L109.3,350.5 L109.4,350.2 L109.4,350.0 L109.4,349.7 L109.4,349.5 L109.4,349.2 L109.4,349.0 L109.4,348.7 L109.4,348.5 L109.4,348.2 L109.4,348.0 L109.5,347.7 L109.5,347.5 L109.5,347.2 L109.5,347.0 L109.5,346.7 L109.5,346.5 L109.5,346.2 L109.5,346.0 L109.5,345.7 L109.5,345.5 L109.6,345.2 L109.6,345.0 L109.6,344.7 L109.6,344.5 L109.6,344.2 L109.6,344.0 L109.7,343.7 L109.7,343.5 L109.7,343.2 L109.7,343.0 L109.7,342.7 L109.7,342.4 L109.7,342.2 L109.7,341.9 L109.7,341.7 L109.7,341.4 L109.7,341.2 L109.8,340.9 L109.8,340.7 L109.8,340.4 L109.8,340.2 L109.8,339.9 L109.8,339.7 L109.9,339.4 L109.9,339.2 L109.9,338.9 L110.0,338.7 L110.0,338.4 L110.0,338.2 L110.0,337.9 L110.0,337.7 L110.0,337.4 L110.0,337.2 L110.0,336.9 L110.0,336.7 L110.0,336.4 L110.0,336.2 L110.1,335.9 L110.1,335.7 L110.1,335.4 L110.1,335.2 L110.2,334.9 L110.2,334.7 L110.2,334.4 L110.2,334.2 L110.2,333.9 L110.2,333.7 L110.2,333.4 L110.3,333.2 L110.3,332.9 L110.3,332.7 L110.4,332.4 L110.4,332.2 L110.4,331.9 L110.4,331.7 L110.4,331.4 L110.4,331.2 L110.4,330.9 L110.5,330.7 L110.5,330.4 L110.5,330.2 L110.5,329.9 L110.5,329.7 L110.5,329.4 L110.5,329.2 L110.6,328.9 L110.6,328.7 L110.6,328.4 L110.6,328.2 L110.6,327.9 L110.6,327.7 L110.6,327.4 L110.7,327.2 L110.7,326.9 L110.7,326.7 L110.7,326.4 L110.7,326.2 L110.7,325.9 L110.8,325.7 L110.8,325.4 L110.8,325.2 L110.8,324.9 L110.8,324.7 L110.8,324.4 L110.8,324.2 L110.9,323.9 L110.9,323.7 L110.9,323.4 L111.0,323.2 L111.0,322.9 L111.0,322.7 L111.1,322.4 L111.1,322.2 L111.1,321.9 L111.1,321.6 L111.2,321.4 L111.3,321.1 L111.3,320.9 L111.3,320.6 L111.3,320.4 L111.3,320.1 L111.3,319.9 L111.4,319.6 L111.4,319.4 L111.5,319.1 L111.6,318.9 L111.6,318.6 L111.6,318.4 L111.7,318.1 L111.7,317.9 L111.8,317.6 L111.9,317.4 L111.9,317.1 L111.9,316.9 L111.9,316.6 L112.0,316.4 L112.0,316.1 L112.0,315.9 L112.1,315.6 L112.1,315.4 L112.1,315.1 L112.2,314.9 L112.3,314.6 L112.3,314.4 L112.3,314.1 L112.3,313.9 L112.4,313.6 L112.4,313.4 L112.4,313.1 L112.4,312.9 L112.4,312.6 L112.4,312.4 L112.5,312.1 L112.5,311.9 L112.6,311.6 L112.6,311.4 L112.7,311.1 L112.7,310.9 L112.9,310.6 L113.1,310.4 L113.1,310.1 L113.2,309.9 L113.3,309.6 L113.4,309.4 L113.4,309.1 L113.6,308.9 L113.6,308.6 L113.7,308.4 L113.7,308.1 L114.3,307.9 L114.5,307.6 L114.7,307.4 L114.7,307.1 L114.7,306.9 L114.8,306.6 L115.0,306.4 L115.1,306.1 L115.4,305.9 L116.0,305.6 L116.0,305.4 L116.3,305.1 L116.6,304.9 L117.2,304.6 L118.4,304.4 L118.5,304.1 L118.5,303.9 L118.9,303.6 L120.3,303.4 L120.7,303.1 L121.3,302.9 L121.4,302.6 L121.7,302.4 L121.7,302.1 L121.7,301.9 L121.7,301.6 L121.7,301.4 L121.7,301.1 L121.7,300.9 L121.8,300.6 L121.8,300.3 L121.8,300.1 L121.8,299.8 L121.8,299.6 L121.8,299.3 L121.8,299.1 L121.8,298.8 L121.9,298.6 L121.9,298.3 L121.9,298.1 L121.9,297.8 L122.0,297.6 L122.0,297.3 L122.0,297.1 L122.0,296.8 L122.0,296.6 L122.1,296.3 L122.1,296.1 L122.1,295.8 L122.1,295.6 L122.1,295.3 L122.1,295.1 L122.2,294.8 L122.2,294.6 L122.2,294.3 L122.2,294.1 L122.2,293.8 L122.2,293.6 L122.2,293.3 L122.2,293.1 L122.2,292.8 L122.2,292.6 L122.3,292.3 L122.3,292.1 L122.3,291.8 L122.3,291.6 L122.3,291.3 L122.3,291.1 L122.4,290.8 L122.4,290.6 L122.4,290.3 L122.5,290.1 L122.5,289.8 L122.5,289.6 L122.5,289.3 L122.6,289.1 L122.6,288.8 L122.6,288.6 L122.8,288.3 L122.8,288.1 L122.8,287.8 L122.8,287.6 L122.9,287.3 L122.9,287.1 L122.9,286.8 L122.9,286.6 L123.0,286.3 L123.0,286.1 L123.0,285.8 L123.0,285.6 L123.0,285.3 L123.2,285.1 L123.3,284.8 L123.3,284.6 L123.4,284.3 L123.4,284.1 L123.5,283.8 L123.5,283.6 L123.5,283.3 L123.6,283.1 L123.6,282.8 L123.6,282.6 L123.6,282.3 L123.7,282.1 L123.9,281.8 L124.0,281.6 L124.2,281.3 L124.2,281.1 L124.3,280.8 L124.3,280.6 L124.3,280.3 L124.5,280.1 L124.6,279.8 L124.6,279.5 L124.9,279.3 L125.0,279.0 L125.1,278.8 L125.2,278.5 L125.6,278.3 L126.0,278.0 L126.4,277.8 L126.9,277.5 L127.1,277.3 L128.2,277.0 L128.7,276.8 L129.9,276.5 L130.7,276.3 L131.2,276.0 L131.3,275.8 L131.5,275.5 L131.8,275.3 L132.2,275.0 L132.2,274.8 L132.2,274.5 L132.2,274.3 L132.2,274.0 L132.4,273.8 L132.6,273.5 L132.7,273.3 L133.0,273.0 L133.6,272.8 L133.8,272.5 L134.3,272.3 L134.5,272.0 L135.8,271.8 L135.8,271.5 L137.1,271.3 L137.2,271.0 L137.3,270.8 L138.0,270.5 L138.0,270.3 L138.1,270.0 L140.3,269.8 L142.2,269.5 L142.4,269.3 L142.5,269.0 L142.7,268.8 L144.5,268.5 L146.1,268.3 L149.8,268.0 L152.3,267.8 L153.5,267.5 L154.0,267.3 L154.7,267.0 L157.8,266.8 L160.9,266.5 L162.6,266.3 L165.7,266.0 L170.7,265.8 L170.8,265.5 L170.8,265.3 L170.9,265.0 L170.9,264.8 L170.9,264.5 L170.9,264.3 L170.9,264.0 L170.9,263.8 L170.9,263.5 L171.0,263.3 L171.0,263.0 L171.0,262.8 L171.1,262.5 L171.1,262.3 L171.1,262.0 L171.1,261.8 L171.1,261.5 L171.1,261.3 L171.1,261.0 L171.1,260.8 L171.2,260.5 L171.2,260.3 L171.2,260.0 L171.2,259.8 L171.2,259.5 L171.4,259.3 L171.4,259.0 L171.5,258.8 L171.6,258.5 L171.6,258.2 L171.6,258.0 L171.7,257.7 L171.7,257.5 L171.9,257.2 L171.9,257.0 L171.9,256.7 L171.9,256.5 L172.0,256.2 L172.1,256.0 L172.1,255.7 L172.2,255.5 L172.3,255.2 L172.3,255.0 L172.3,254.7 L172.4,254.5 L172.5,254.2 L172.5,254.0 L172.5,253.7 L172.5,253.5 L172.7,253.2 L172.8,253.0 L172.8,252.7 L172.9,252.5 L173.0,252.2 L173.2,252.0 L173.3,251.7 L173.6,251.5 L173.7,251.2 L173.8,251.0 L173.9,250.7 L173.9,250.5 L174.2,250.2 L174.5,250.0 L179.8,249.7 L185.4,249.5 L185.5,249.2 L186.0,249.0 L186.4,248.7 L187.2,248.5 L194.5,248.2 L194.9,248.0 L197.6,247.7 L197.9,247.5 L198.5,247.2 L203.8,247.0 L207.1,246.7 L208.4,246.5 L212.6,246.2 L216.3,246.0 L223.3,245.7 L228.7,245.5 L231.3,245.2 L232.4,245.0 L237.7,244.7 L240.1,244.5 L250.1,244.2 L258.3,244.0 L277.4,243.7 L284.4,243.5 L296.0,243.2 L296.3,243.0 L296.4,242.7 L296.4,242.5 L296.5,242.2 L296.5,242.0 L296.5,241.7 L296.5,241.5 L296.5,241.2 L296.6,241.0 L296.6,240.7 L296.6,240.5 L296.7,240.2 L296.7,240.0 L296.7,239.7 L296.8,239.5 L296.8,239.2 L296.8,239.0 L296.8,238.7 L296.8,238.5 L296.8,238.2 L296.8,238.0 L296.8,237.7 L296.9,237.4 L296.9,237.2 L296.9,236.9 L296.9,236.7 L296.9,236.4 L296.9,236.2 L296.9,235.9 L296.9,235.7 L296.9,235.4 L296.9,235.2 L296.9,234.9 L297.0,234.7 L297.0,234.4 L297.0,234.2 L297.0,233.9 L297.1,233.7 L297.2,233.4 L297.2,233.2 L297.2,232.9 L297.2,232.7 L297.2,232.4 L297.2,232.2 L297.2,231.9 L297.2,231.7 L297.3,231.4 L297.3,231.2 L297.3,230.9 L297.4,230.7 L297.6,230.4 L297.6,230.2 L297.6,229.9 L297.6,229.7 L297.6,229.4 L297.7,229.2 L297.7,228.9 L297.7,228.7 L297.8,228.4 L297.8,228.2 L297.8,227.9 L297.8,227.7 L297.9,227.4 L297.9,227.2 L297.9,226.9 L297.9,226.7 L297.9,226.4 L297.9,226.2 L297.9,225.9 L297.9,225.7 L298.0,225.4 L298.0,225.2 L298.0,224.9 L298.0,224.7 L298.1,224.4 L298.1,224.2 L298.2,223.9 L298.4,223.7 L299.0,223.4 L299.0,223.2 L299.1,222.9 L300.1,222.7 L301.1,222.4 L302.7,222.2 L305.2,221.9 L305.8,221.7 L306.9,221.4 L307.8,221.2 L308.9,220.9 L311.2,220.7 L311.2,220.4 L311.2,220.2 L311.2,219.9 L311.2,219.7 L311.2,219.4 L311.2,219.2 L311.2,218.9 L311.2,218.7 L311.3,218.4 L311.3,218.2 L311.3,217.9 L311.3,217.7 L311.3,217.4 L311.3,217.2 L311.3,216.9 L311.3,216.7 L311.3,216.4 L311.3,216.1 L311.3,215.9 L311.3,215.6 L311.3,215.4 L311.3,215.1 L311.4,214.9 L311.4,214.6 L311.4,214.4 L311.4,214.1 L311.4,213.9 L311.4,213.6 L311.4,213.4 L311.4,213.1 L311.4,212.9 L311.4,212.6 L311.5,212.4 L311.5,212.1 L311.5,211.9 L311.5,211.6 L311.5,211.4 L311.5,211.1 L311.5,210.9 L311.6,210.6 L311.6,210.4 L311.6,210.1 L311.6,209.9 L311.6,209.6 L311.6,209.4 L311.6,209.1 L311.6,208.9 L311.6,208.6 L311.7,208.4 L311.7,208.1 L311.7,207.9 L311.7,207.6 L311.7,207.4 L311.8,207.1 L311.8,206.9 L311.8,206.6 L311.8,206.4 L311.8,206.1 L311.8,205.9 L311.9,205.6 L311.9,205.4 L311.9,205.1 L311.9,204.9 L311.9,204.6 L312.0,204.4 L312.0,204.1 L312.0,203.9 L312.0,203.6 L312.0,203.4 L312.0,203.1 L312.0,202.9 L312.0,202.6 L312.1,202.4 L312.1,202.1 L312.1,201.9 L312.1,201.6 L312.1,201.4 L312.1,201.1 L312.1,200.9 L312.1,200.6 L312.1,200.4 L312.1,200.1 L312.1,199.9 L312.1,199.6 L312.2,199.4 L312.2,199.1 L312.2,198.9 L312.2,198.6 L312.2,198.4 L312.2,198.1 L312.2,197.9 L312.2,197.6 L312.2,197.4 L312.2,197.1 L312.2,196.9 L312.2,196.6 L312.2,196.4 L312.2,196.1 L312.3,195.9 L312.3,195.6 L312.3,195.3 L312.3,195.1 L312.3,194.8 L312.3,194.6 L312.3,194.3 L312.3,194.1 L312.3,193.8 L312.3,193.6 L312.3,193.3 L312.3,193.1 L312.4,192.8 L312.4,192.6 L312.4,192.3 L312.4,192.1 L312.4,191.8 L312.4,191.6 L312.4,191.3 L312.4,191.1 L312.5,190.8 L312.5,190.6 L312.5,190.3 L312.5,190.1 L312.5,189.8 L312.5,189.6 L312.5,189.3 L312.6,189.1 L312.6,188.8 L312.6,188.6 L312.6,188.3 L312.6,188.1 L312.6,187.8 L312.6,187.6 L312.6,187.3 L312.6,187.1 L312.6,186.8 L312.6,186.6 L312.6,186.3 L312.7,186.1 L312.7,185.8 L312.7,185.6 L312.7,185.3 L312.7,185.1 L312.7,184.8 L312.7,184.6 L312.8,184.3 L312.8,184.1 L312.8,183.8 L312.8,183.6 L312.8,183.3 L312.8,183.1 L312.8,182.8 L312.8,182.6 L312.8,182.3 L312.9,182.1 L312.9,181.8 L312.9,181.6 L313.0,181.3 L313.0,181.1 L313.0,180.8 L313.0,180.6 L313.0,180.3 L313.0,180.1 L313.1,179.8 L313.1,179.6 L313.1,179.3 L313.1,179.1 L313.2,178.8 L313.2,178.6 L313.2,178.3 L313.2,178.1 L313.2,177.8 L313.7,177.6 L313.7,177.3 L313.7,177.1 L313.7,176.8 L313.8,176.6 L313.8,176.3 L313.8,176.1 L313.8,175.8 L313.9,175.6 L313.9,175.3 L313.9,175.1 L313.9,174.8 L314.0,174.6 L314.0,174.3 L314.0,174.0 L314.0,173.8 L314.1,173.5 L314.1,173.3 L314.1,173.0 L314.1,172.8 L314.1,172.5 L314.1,172.3 L314.1,172.0 L314.1,171.8 L314.2,171.5 L314.2,171.3 L314.2,171.0 L314.2,170.8 L314.3,170.5 L314.3,170.3 L314.4,170.0 L314.5,169.8 L314.6,169.5 L314.7,169.3 L314.7,169.0 L314.7,168.8 L314.7,168.5 L314.7,168.3 L314.8,168.0 L314.8,167.8 L314.8,167.5 L314.8,167.3 L314.9,167.0 L314.9,166.8 L314.9,166.5 L315.0,166.3 L315.0,166.0 L315.0,165.8 L315.1,165.5 L315.1,165.3 L315.1,165.0 L315.3,164.8 L315.3,164.5 L315.3,164.3 L315.5,164.0 L315.6,163.8 L315.6,163.5 L315.7,163.3 L315.7,163.0 L315.8,162.8 L315.8,162.5 L316.0,162.3 L316.1,162.0 L316.1,161.8 L316.1,161.5 L316.1,161.3 L316.2,161.0 L316.2,160.8 L316.2,160.5 L316.3,160.3 L316.3,160.0 L316.3,159.8 L316.3,159.5 L316.3,159.3 L316.4,159.0 L316.4,158.8 L316.4,158.5 L316.4,158.3 L316.5,158.0 L316.5,157.8 L316.5,157.5 L316.5,157.3 L316.6,157.0 L316.6,156.8 L316.6,156.5 L316.6,156.3 L316.6,156.0 L316.7,155.8 L316.8,155.5 L316.9,155.3 L316.9,155.0 L316.9,154.8 L316.9,154.5 L317.0,154.3 L317.0,154.0 L317.1,153.8 L317.1,153.5 L317.1,153.2 L317.1,153.0 L317.1,152.7 L317.2,152.5 L317.3,152.2 L317.3,152.0 L317.3,151.7 L317.3,151.5 L317.3,151.2 L317.3,151.0 L317.3,150.7 L317.4,150.5 L317.4,150.2 L317.4,150.0 L317.5,149.7 L317.5,149.5 L317.5,149.2 L317.5,149.0 L317.5,148.7 L317.6,148.5 L317.6,148.2 L317.6,148.0 L317.6,147.7 L317.7,147.5 L317.7,147.2 L317.7,147.0 L317.7,146.7 L317.8,146.5 L317.8,146.2 L317.8,146.0 L317.8,145.7 L317.8,145.5 L317.8,145.2 L317.8,145.0 L317.8,144.7 L317.8,144.5 L317.8,144.2 L317.8,144.0 L317.8,143.7 L317.8,143.5 L317.8,143.2 L317.9,143.0 L317.9,142.7 L317.9,142.5 L317.9,142.2 L317.9,142.0 L317.9,141.7 L317.9,141.5 L317.9,141.2 L317.9,141.0 L317.9,140.7 L317.9,140.5 L318.0,140.2 L318.0,140.0 L318.0,139.7 L318.0,139.5 L318.0,139.2 L318.0,139.0 L318.0,138.7 L318.0,138.5 L318.0,138.2 L318.1,138.0 L318.1,137.7 L318.1,137.5 L318.1,137.2 L318.1,137.0 L318.1,136.7 L318.1,136.5 L318.2,136.2 L318.2,136.0 L318.2,135.7 L318.2,135.5 L318.2,135.2 L318.2,135.0 L318.2,134.7 L318.2,134.5 L318.2,134.2 L318.2,134.0 L318.2,133.7 L318.2,133.5 L318.2,133.2 L318.2,133.0 L318.3,132.7 L318.3,132.5 L318.3,132.2 L318.3,131.9 L318.3,131.7 L318.3,131.4 L318.3,131.2 L318.3,130.9 L318.3,130.7 L318.3,130.4 L318.3,130.2 L318.3,129.9 L318.4,129.7 L318.4,129.4 L318.4,129.2 L318.4,128.9 L318.4,128.7 L318.4,128.4 L318.4,128.2 L318.5,127.9 L318.5,127.7 L318.5,127.4 L318.5,127.2 L318.5,126.9 L318.5,126.7 L318.5,126.4 L318.5,126.2 L318.5,125.9 L318.6,125.7 L318.6,125.4 L318.6,125.2 L318.6,124.9 L318.6,124.7 L318.7,124.4 L318.7,124.2 L318.7,123.9 L318.8,123.7 L318.8,123.4 L318.8,123.2 L318.8,122.9 L318.8,122.7 L318.8,122.4 L318.8,122.2 L318.8,121.9 L318.8,121.7 L318.9,121.4 L318.9,121.2 L318.9,120.9 L318.9,120.7 L318.9,120.4 L319.0,120.2 L319.0,119.9 L319.0,119.7 L319.0,119.4 L319.0,119.2 L319.1,118.9 L319.1,118.7 L319.1,118.4 L319.2,118.2 L319.2,117.9 L319.2,117.7 L319.2,117.4 L319.3,117.2 L319.3,116.9 L319.4,116.7 L319.4,116.4 L319.4,116.2 L319.5,115.9 L319.5,115.7 L319.6,115.4 L319.6,115.2 L319.6,114.9 L319.6,114.7 L319.7,114.4 L319.7,114.2 L319.7,113.9 L319.9,113.7 L319.9,113.4 L319.9,113.2 L319.9,112.9 L320.0,112.7 L320.0,112.4 L320.0,112.2 L320.0,111.9 L320.1,111.7 L320.1,111.4 L320.1,111.1 L320.1,110.9 L320.2,110.6 L320.2,110.4 L320.4,110.1 L320.4,109.9 L320.7,109.6 L320.7,109.4 L320.7,109.1 L320.8,108.9 L321.0,108.6 L321.1,108.4 L321.1,108.1 L321.2,107.9 L321.3,107.6 L321.3,107.4 L321.5,107.1 L321.6,106.9 L321.7,106.6 L321.7,106.4 L321.7,106.1 L321.7,105.9 L321.7,105.6 L321.7,105.4 L321.9,105.1 L322.1,104.9 L322.2,104.6 L322.3,104.4 L322.5,104.1 L322.5,103.9 L322.7,103.6 L322.8,103.4 L323.0,103.1 L323.1,102.9 L323.1,102.6 L323.1,102.4 L323.7,102.1 L323.8,101.9 L323.8,101.6 L323.8,101.4 L323.9,101.1 L323.9,100.9 L324.2,100.6 L324.3,100.4 L324.4,100.1 L324.4,99.9 L324.4,99.6 L324.4,99.4 L324.7,99.1 L324.7,98.9 L325.0,98.6 L325.2,98.4 L325.5,98.1 L325.5,97.9 L325.9,97.6 L326.0,97.4 L326.1,97.1 L326.4,96.9 L327.1,96.6 L327.3,96.4 L327.6,96.1 L328.0,95.9 L328.2,95.6 L330.4,95.4 L330.9,95.1 L331.0,94.9 L332.5,94.6 L332.7,94.4 L332.8,94.1 L332.8,93.9 L333.5,93.6 L333.9,93.4 L334.2,93.1 L334.9,92.9 L336.4,92.6 L336.6,92.4 L338.2,92.1 L339.5,91.9 L340.5,91.6 L341.0,91.4 L341.8,91.1 L342.1,90.9 L344.6,90.6 L346.7,90.4 L350.5,90.1 L351.1,89.8 L351.9,89.6 L353.2,89.3 L353.4,89.1 L354.7,88.8 L356.3,88.6 L356.8,88.3 L358.8,88.1 L359.4,87.8 L360.5,87.6 L367.9,87.3 L371.1,87.1 L376.8,86.8 L378.4,86.6 L378.8,86.3 L380.0,86.1 L380.5,85.8 L382.0,85.6 L382.4,85.3 L390.2,85.1 L393.4,84.8 L396.6,84.6 L398.6,84.3 L399.3,84.1 L401.4,83.8 L403.1,83.6 L405.2,83.3 L406.1,83.1 L408.1,82.8 L408.3,82.6 L408.5,82.3 L410.8,82.1 L412.1,81.8 L413.6,81.6 L418.5,81.3 L425.2,81.1 L431.0,80.8 L431.6,80.6 L431.6,80.3 L442.4,80.1 L443.9,79.8 L445.0,79.6 L446.1,79.3 L446.6,79.1 L454.9,78.8 L456.9,78.6 L457.2,78.3 L457.5,78.1 L460.3,77.8 L460.5,77.6 L460.5,77.3 L461.2,77.1 L461.2,76.8 L461.7,76.6 L461.8,76.3 L466.2,76.1 L466.6,75.8 L473.2,75.6 L473.2,75.3 L475.7,75.1 L480.8,74.8 L485.4,74.6 L486.2,74.3 L489.3,74.1 L489.9,73.8 L492.1,73.6 L496.9,73.3 L499.3,73.1 L501.1,72.8 L502.3,72.6 L506.2,72.3 L508.7,72.1 L509.3,71.8 L510.3,71.6 L513.9,71.3 L520.7,71.1 L521.0,70.8 L521.6,70.6 L533.0,70.3 L534.7,70.1 L538.9,69.8 L542.1,69.6 L546.6,69.3 L550.8,69.0 L551.4,68.8 L551.8,68.5 L554.3,68.3 L559.8,68.0 L566.2,67.8 L570.2,67.5 L571.6,67.3 L575.7,67.0 L580.1,66.8 L583.0,66.5 L584.4,66.3 L584.4,66.0 L584.5,65.8 L585.1,65.5 L585.2,65.3 L585.8,65.0 L586.8,64.8 L586.9,64.5 L587.1,64.3 L587.1,64.0 L587.9,63.8 L588.0,63.5 L588.3,63.3 L589.3,63.0 L589.5,62.8 L590.9,62.5 L591.1,62.3 L591.2,62.0 L591.4,61.8 L593.1,61.5 L593.5,61.3 L601.7,61.0 L603.6,60.8 L604.8,60.5 L607.5,60.3 L608.2,60.0 L608.9,59.8 L613.3,59.5 L622.5,59.3 L624.9,59.0 L627.2,58.8 L632.0,58.5 L632.6,58.3 L635.0,58.0 L636.6,57.8 L638.6,57.5 L642.2,57.3 L646.5,57.0 L647.2,56.8 L648.0,56.5 L648.3,56.3 L648.4,56.0 L651.3,55.8 L657.0,55.5 L659.1,55.3 L661.6,55.0 L666.9,54.8 L669.0,54.5 L672.3,54.3 L672.3,54.0 L677.3,53.8 L679.5,53.5 L682.2,53.3 L689.3,53.0 L692.4,52.8 L694.7,52.5 L695.3,52.3 L697.4,52.0 L697.8,51.8 L699.9,51.5 L703.8,51.3 L705.8,51.0 L719.1,50.8 L731.5,50.5 L738.7,50.3 L742.5,50.0 L748.7,49.8 L749.9,49.5 L768.0,49.3 L768.5,49.0 L768.9,48.8 L770.8,48.5 L774.7,48.3 L774.7,48.0 L776.0,48.0" fill="none" stroke="#4f8ff7" stroke-width="2.5" stroke-linejoin="round"/>
<circle cx="776.0" cy="48.0" r="4" fill="#4f8ff7"/>
<text x="64.0" y="388" fill="#e6edf3" font-size="13" text-anchor="middle">Oct 01, 2025</text><text x="301.3" y="388" fill="#e6edf3" font-size="13" text-anchor="middle">Jan 29, 2026</text><text x="538.7" y="388" fill="#e6edf3" font-size="13" text-anchor="middle">May 30, 2026</text><text x="776.0" y="388" fill="#e6edf3" font-size="13" text-anchor="middle">Sep 28, 2026</text>
</svg>